<?xml version="1.0" encoding="utf-8"?>
<!-- Generator: Adobe Illustrator 20.0.0, SVG Export Plug-In . SVG Version: 6.00 Build 0)  -->
<svg version="1.1" id="Layer_1" xmlns="http://www.w3.org/2000/svg" xmlns:xlink="http://www.w3.org/1999/xlink" x="0px" y="0px"
	 viewBox="0 0 40 40" style="enable-background:new 0 0 40 40;" xml:space="preserve">
<style type="text/css">
	.st0{fill:#FA3737;}
</style>
<g>
	<path class="st0" d="M25,10.5H15c-2.5,0-4.5,2-4.5,4.5V25c0,2.5,2,4.5,4.5,4.5h10c2.5,0,4.5-2,4.5-4.5V15
		C29.5,12.5,27.5,10.5,25,10.5z M20,26c-3.4,0-6.1-2.7-6.1-6.1s2.7-6.1,6.1-6.1s6.1,2.7,6.1,6.1S23.4,26,20,26z M26.2,15.1
		c-0.8,0-1.4-0.6-1.4-1.4c0-0.8,0.6-1.4,1.4-1.4c0.8,0,1.4,0.6,1.4,1.4C27.7,14.4,27,15.1,26.2,15.1z"/>
	<path class="st0" d="M20,1.1C9.6,1.1,1.1,9.5,1.1,20S9.6,38.9,20,38.9S39,30.5,39,20S30.5,1.1,20,1.1z M31.7,25
		c0,3.7-3,6.8-6.8,6.8H15c-3.7,0-6.8-3-6.8-6.8V15c0-3.7,3-6.8,6.8-6.8h10c3.7,0,6.8,3,6.8,6.8V25z"/>
	<ellipse class="st0" cx="20" cy="20" rx="3.9" ry="3.8"/>
</g>
</svg>
